<svg width="48" height="39" viewBox="0 0 48 39" fill="none" xmlns="http://www.w3.org/2000/svg">
<ellipse cx="21" cy="4.83951" rx="6" ry="4.83951" fill="#292355"/>
<path d="M17.4683 5.04102H24.4097C25.3844 5.04102 26.0297 6.05265 25.6188 6.93647L22.3794 13.9039C21.9153 14.9023 20.5096 14.9397 19.993 13.9674L16.2909 6.99997C15.819 6.1119 16.4627 5.04102 17.4683 5.04102Z" stroke="#292355" stroke-width="0.666667"/>
<ellipse cx="21" cy="5" rx="3" ry="2" fill="white"/>
<ellipse cx="38.5306" cy="29.6543" rx="4.53061" ry="3.65432" fill="#292355"/>
<path d="M35.8638 29.8064H41.1052C41.8412 29.8064 42.3285 30.5703 42.0182 31.2377L39.5722 36.4988C39.2217 37.2526 38.1602 37.2809 37.7701 36.5467L34.9747 31.2856C34.6184 30.615 35.1044 29.8064 35.8638 29.8064Z" stroke="#292355" stroke-width="0.503401"/>
<ellipse cx="38.5307" cy="29.7756" rx="2.26531" ry="1.5102" fill="white"/>
<path d="M18.8525 11C8.51914 16.6667 -8.24753 27.5 7.35247 25.5C22.9525 23.5 28.5192 22.6667 29.3525 22.5C39.3525 20.6667 55.7525 19.3 41.3525 28.5" stroke="#292355"/>
</svg>
